#N canvas 1077 117 307 371 10;
#X obj 24 311 dac~;
#X obj 24 22 loadbang;
#X obj 24 57 bng 15 250 50 0 empty empty empty 17 7 0 10 -262144 -1
-1;
#X obj 157 88 print "initial bang";
#X obj 24 279 osc~;
#X floatatom 24 253 5 0 0 0 - - -, f 5;
#X obj 61 279 print "freq";
#X msg 24 186 400 1;
#X msg 96 187 100 1000;
#X obj 24 155 delay 1;
#X obj 96 155 delay 500;
#X obj 24 217 line;
#X obj 24 125 bng 15 250 50 0 empty empty empty 17 7 0 10 -262144 -1
-1;
#X obj 24 88 metro 1 20 permin;
#X connect 1 0 2 0;
#X connect 2 0 3 0;
#X connect 2 0 13 0;
#X connect 4 0 0 0;
#X connect 5 0 4 0;
#X connect 5 0 6 0;
#X connect 7 0 11 0;
#X connect 8 0 11 0;
#X connect 9 0 7 0;
#X connect 10 0 8 0;
#X connect 11 0 5 0;
#X connect 12 0 9 0;
#X connect 12 0 10 0;
#X connect 13 0 12 0;
